{
    "asset" : {
        "generator" : "Khronos glTF Blender I/O v1.6.16",
        "version" : "2.0"
    },
    "scene" : 0,
    "scenes" : [
        {
            "name" : "Scene",
            "nodes" : [
                0,
                1
            ]
        }
    ],
    "nodes" : [
        {
            "mesh" : 0,
            "name" : "ok sphere",
            "scale" : [
                0.5980605483055115,
                0.5980605483055115,
                0.5980605483055115
            ],
            "translation" : [
                -2.6184277534484863,
                2.374387264251709,
                0.8812267184257507
            ]
        },
        {
            "mesh" : 1,
            "name" : "ok sphere.001",
            "scale" : [
                0.561913251876831,
                0.561913251876831,
                0.561913251876831
            ],
            "translation" : [
                -0.8297926783561707,
                4.997574806213379,
                -2.8982880115509033
            ]
        }
    ],
    "materials" : [
        {
            "doubleSided" : true,
            "name" : "Material",
            "pbrMetallicRoughness" : {
                "baseColorFactor" : [
                    0.800000011920929,
                    0.800000011920929,
                    0.800000011920929,
                    1
                ],
                "metallicFactor" : 0,
                "roughnessFactor" : 0.4000000059604645
            }
        },
        {
            "doubleSided" : true,
            "name" : "Material.006",
            "pbrMetallicRoughness" : {
                "baseColorFactor" : [
                    0.800000011920929,
                    0.800000011920929,
                    0.800000011920929,
                    1
                ],
                "metallicFactor" : 0,
                "roughnessFactor" : 0.4000000059604645
            }
        }
    ],
    "meshes" : [
        {
            "name" : "Sphere.006",
            "primitives" : [
                {
                    "attributes" : {
                        "POSITION" : 0,
                        "NORMAL" : 1,
                        "TEXCOORD_0" : 2
                    },
                    "indices" : 3,
                    "material" : 0
                }
            ]
        },
        {
            "name" : "Sphere.007",
            "primitives" : [
                {
                    "attributes" : {
                        "POSITION" : 4,
                        "NORMAL" : 5,
                        "TEXCOORD_0" : 6
                    },
                    "indices" : 3,
                    "material" : 1
                }
            ]
        }
    ],
    "accessors" : [
        {
            "bufferView" : 0,
            "componentType" : 5126,
            "count" : 19800,
            "max" : [
                0.9999998807907104,
                1,
                0.9999996423721313
            ],
            "min" : [
                -0.999999463558197,
                -1,
                -1
            ],
            "type" : "VEC3"
        },
        {
            "bufferView" : 1,
            "componentType" : 5126,
            "count" : 19800,
            "type" : "VEC3"
        },
        {
            "bufferView" : 2,
            "componentType" : 5126,
            "count" : 19800,
            "type" : "VEC2"
        },
        {
            "bufferView" : 3,
            "componentType" : 5123,
            "count" : 29400,
            "type" : "SCALAR"
        },
        {
            "bufferView" : 4,
            "componentType" : 5126,
            "count" : 19800,
            "max" : [
                0.9999998807907104,
                1,
                0.9999996423721313
            ],
            "min" : [
                -0.999999463558197,
                -1,
                -1
            ],
            "type" : "VEC3"
        },
        {
            "bufferView" : 5,
            "componentType" : 5126,
            "count" : 19800,
            "type" : "VEC3"
        },
        {
            "bufferView" : 6,
            "componentType" : 5126,
            "count" : 19800,
            "type" : "VEC2"
        }
    ],
    "bufferViews" : [
        {
            "buffer" : 0,
            "byteLength" : 237600,
            "byteOffset" : 0
        },
        {
            "buffer" : 0,
            "byteLength" : 237600,
            "byteOffset" : 237600
        },
        {
            "buffer" : 0,
            "byteLength" : 158400,
            "byteOffset" : 475200
        },
        {
            "buffer" : 0,
            "byteLength" : 58800,
            "byteOffset" : 633600
        },
        {
            "buffer" : 0,
            "byteLength" : 237600,
            "byteOffset" : 692400
        },
        {
            "buffer" : 0,
            "byteLength" : 237600,
            "byteOffset" : 930000
        },
        {
            "buffer" : 0,
            "byteLength" : 158400,
            "byteOffset" : 1167600
        }
    ],
    "buffers" : [
        {
            "byteLength" : 1326000,
            "uri" : "data:application/octet-stream;base64,"
        }
    ]
}
