{
    "asset" : {
        "generator" : "Khronos glTF Blender I/O v1.6.16",
        "version" : "2.0"
    },
    "scene" : 0,
    "scenes" : [
        {
            "name" : "Scene",
            "nodes" : [
                0,
                1
            ]
        }
    ],
    "nodes" : [
        {
            "mesh" : 0,
            "name" : "Cylinder",
            "rotation" : [
                0.1880418360233307,
                0.06797417998313904,
                0.23145166039466858,
                0.9520767331123352
            ],
            "scale" : [
                0.31867271661758423,
                0.8885762095451355,
                0.3190000057220459
            ],
            "translation" : [
                -0.01667463779449463,
                0.8170334696769714,
                0.23736411333084106
            ]
        },
        {
            "mesh" : 1,
            "name" : "Cylinder.001",
            "rotation" : [
                -0.007383402902632952,
                -0.30415865778923035,
                -0.1506769359111786,
                0.940600574016571
            ],
            "scale" : [
                0.30805614590644836,
                0.8589733839035034,
                0.3083725571632385
            ],
            "translation" : [
                0.7837051153182983,
                3.7275962829589844,
                -1.2676894664764404
            ]
        }
    ],
    "meshes" : [
        {
            "name" : "Cylinder.001",
            "primitives" : [
                {
                    "attributes" : {
                        "POSITION" : 0,
                        "NORMAL" : 1,
                        "TEXCOORD_0" : 2
                    },
                    "indices" : 3
                }
            ]
        },
        {
            "name" : "Cylinder.002",
            "primitives" : [
                {
                    "attributes" : {
                        "POSITION" : 4,
                        "NORMAL" : 5,
                        "TEXCOORD_0" : 6
                    },
                    "indices" : 3
                }
            ]
        }
    ],
    "accessors" : [
        {
            "bufferView" : 0,
            "componentType" : 5126,
            "count" : 846,
            "max" : [
                0.9999379515647888,
                1,
                0.9997518062591553
            ],
            "min" : [
                -0.9999379515647888,
                -1,
                -1
            ],
            "type" : "VEC3"
        },
        {
            "bufferView" : 1,
            "componentType" : 5126,
            "count" : 846,
            "type" : "VEC3"
        },
        {
            "bufferView" : 2,
            "componentType" : 5126,
            "count" : 846,
            "type" : "VEC2"
        },
        {
            "bufferView" : 3,
            "componentType" : 5123,
            "count" : 1680,
            "type" : "SCALAR"
        },
        {
            "bufferView" : 4,
            "componentType" : 5126,
            "count" : 846,
            "max" : [
                0.9999379515647888,
                1,
                0.9997518062591553
            ],
            "min" : [
                -0.9999379515647888,
                -1,
                -1
            ],
            "type" : "VEC3"
        },
        {
            "bufferView" : 5,
            "componentType" : 5126,
            "count" : 846,
            "type" : "VEC3"
        },
        {
            "bufferView" : 6,
            "componentType" : 5126,
            "count" : 846,
            "type" : "VEC2"
        }
    ],
    "bufferViews" : [
        {
            "buffer" : 0,
            "byteLength" : 10152,
            "byteOffset" : 0
        },
        {
            "buffer" : 0,
            "byteLength" : 10152,
            "byteOffset" : 10152
        },
        {
            "buffer" : 0,
            "byteLength" : 6768,
            "byteOffset" : 20304
        },
        {
            "buffer" : 0,
            "byteLength" : 3360,
            "byteOffset" : 27072
        },
        {
            "buffer" : 0,
            "byteLength" : 10152,
            "byteOffset" : 30432
        },
        {
            "buffer" : 0,
            "byteLength" : 10152,
            "byteOffset" : 40584
        },
        {
            "buffer" : 0,
            "byteLength" : 6768,
            "byteOffset" : 50736
        }
    ],
    "buffers" : [
        {
            "byteLength" : 57504,
            "uri" : "data:application/octet-stream;base64,"
        }
    ]
}
