<svg width="25" height="25" viewBox="0 0 25 25" fill="none" xmlns="http://www.w3.org/2000/svg">
<path d="M13.5417 21.875H9.375V9.375H13.5417V11.4583C14.4298 10.3284 15.7767 9.65476 17.2135 9.62187C19.7975 9.63622 21.8825 11.7389 21.875 14.3229V21.875H17.7083V14.8438C17.5417 13.6798 16.5435 12.8162 15.3677 12.8187C14.8534 12.835 14.368 13.0602 14.0234 13.4423C13.6788 13.8244 13.5048 14.3305 13.5417 14.8438V21.875ZM7.29167 21.875H3.125V9.375H7.29167V21.875ZM5.20833 7.29167C4.05774 7.29167 3.125 6.35893 3.125 5.20833C3.125 4.05774 4.05774 3.125 5.20833 3.125C6.35893 3.125 7.29167 4.05774 7.29167 5.20833C7.29167 5.76087 7.07217 6.29077 6.68147 6.68147C6.29077 7.07217 5.76087 7.29167 5.20833 7.29167Z" fill="#F2F2F2"/>
</svg>
